<svg width="392" height="391" viewBox="0 0 392 391" fill="none" xmlns="http://www.w3.org/2000/svg">
<g clip-path="url(#clip0_188_2)">
<path d="M266 13.0003C312 31.1913 311.5 87 283.5 122.5C323.499 98.0178 381.299 113.001 387.5 165.501C392.538 208.157 357.5 242.001 301.502 235.998C348.5 263.501 351.499 311.113 322.5 342.001C293.502 372.889 235.5 364.501 212.501 307.498C208.5 365.501 170 390.84 128.5 378.001C87.0001 365.161 69.0001 317.001 106.501 265.498C48.4999 296.001 9.56592 265.998 1.99993 227.501C-5.56605 189.004 23.5001 147.001 87.5001 153.501C35.5001 119.001 39.2921 68.0007 71.0009 42.9979C102.71 17.9952 151.5 24.5007 176.501 81.4977C179 24.5 220 -5.1908 266 13.0003Z" fill="#ED2FBD"/>
<circle cx="194" cy="195" r="82" fill="#C8DE4C"/>
<path d="M282.685 118.365C290.152 117.535 296.79 102.053 299.488 96.4739C304.504 86.1004 308.432 73.2381 308.244 61.5668C307.947 43.1357 295.488 25.8163 279.431 17.2525C270.969 12.7397 261.006 8.34201 251.683 6.01123C243.692 4.01362 234.849 0.846421 226.478 2.52052C205.743 6.66754 194.962 27.9657 188.968 45.9473C186.124 54.48 183.643 63.457 183.643 72.5122C183.643 73.687 183.429 84.1176 182.578 82.6294C180.167 78.4091 178.659 74.3888 176.662 69.8498C172.24 59.8011 165.004 51.6775 157.256 44.0541C140.792 27.8554 117.652 26.778 95.843 26.778C72.3275 26.778 57.8474 43.8789 50.7595 64.88C45.8686 79.3718 44.4357 99.4514 50.5229 113.868C54.0654 122.258 62.0047 129.076 67.799 135.878C72.4667 141.357 77.3732 146.913 83.4776 150.728C83.9733 151.038 81.5258 150.314 80.3418 150.314C76.7525 150.314 73.1632 150.314 69.5739 150.314C55.9795 150.314 42.7603 153.661 30.9986 160.49C19.5148 167.158 11.7069 180.149 8.51602 192.912C4.5991 208.58 10.1004 227.595 17.2724 241.427C24.9569 256.247 44.1311 267.4 60.64 268.465C70.2157 269.083 78.0722 266.569 87.3233 264.797C95.6811 263.197 104.074 262.067 112.291 260.241C114.274 259.801 109.402 268.632 109.037 269.235C105.956 274.318 102.782 279.701 100.813 285.327C96.956 296.347 93.0225 307.13 90.5182 318.578C83.2753 351.688 99.4335 388.259 137.022 388.865C172.942 389.445 200.983 353.508 207.309 320.471C208.323 315.174 207.824 310.062 208.137 304.733C208.168 304.217 219.003 315.546 220.917 317.513C232.371 329.285 247.291 345.431 263.515 349.994C281.149 354.954 300.366 359.855 315.935 347.332C331.359 334.925 347.273 316.973 348.653 296.273C350.038 275.495 339.03 261.399 322.562 250.42C318.271 247.559 313.597 245.413 309.072 242.965C306.338 241.486 302.715 241.201 300.316 239.238C296.412 236.044 301.451 237.641 304.812 237.641C318.555 237.641 333.566 239.238 346.583 233.913C359.197 228.753 369.038 214.969 376.875 204.153C386.566 190.78 394.143 167.589 387.051 151.379C382.852 141.78 377.137 132.587 370.012 124.814C363.196 117.378 353.081 114.568 343.624 111.975C327.316 107.503 310.558 113.414 294.991 117.773C290.746 118.962 286.518 119.653 282.211 120.436C281.119 120.634 274.405 120.495 278.425 120.495" stroke="black" stroke-width="3" stroke-linecap="round"/>
<path d="M198.718 108.659C193.014 108.659 187.442 110.522 181.902 111.653C175.056 113.05 168.239 113.492 161.477 115.394C154.322 117.407 147.651 121.042 142.019 125.915C139.454 128.136 137.533 131.089 135.284 133.619C132.678 136.55 129.425 138.731 127.052 141.895C123.06 147.218 119.373 151.751 116.355 157.787C111.957 166.583 110.681 175.874 110.148 185.608C109.516 197.137 109.179 208.834 109.179 220.385C109.179 225.954 110.471 234.376 113.317 239.226C119.322 249.456 127.936 258.57 138.101 264.758C148.723 271.224 160.004 278.672 172.57 280.606C195.084 284.069 216.693 277.833 236.136 266.167C245.635 260.468 254.267 254.294 259.335 244.156C262.122 238.583 265.459 233.153 267.655 227.34C269.305 222.975 268.448 217.461 268.448 212.857C268.448 205.388 268.448 197.919 268.448 190.45C268.448 181.216 269.683 170.977 267.832 161.925C264.662 146.427 250.436 132.161 235.96 126.532C229.561 124.043 222.16 121.07 216.327 117.375C211.748 114.476 205.716 111.036 200.303 111.036" stroke="black" stroke-width="3" stroke-linecap="round"/>
</g>
<defs>
<clipPath id="clip0_188_2">
<rect width="392" height="391" fill="white"/>
</clipPath>
</defs>
</svg>
